0
SECTION
2
HEADER
9
$INSUNITS
70
4
9
$ACADVER
1
AC1014
9
$HANDSEED
5
FFFF
0
ENDSEC
0
SECTION
2
TABLES
0
TABLE
2
VPORT
5
8
100
AcDbSymbolTable
0
ENDTAB
0
TABLE
2
LTYPE
5
5
100
AcDbSymbolTable
0
LTYPE
5
14
100
AcDbSymbolTableRecord
100
AcDbLinetypeTableRecord
2
BYBLOCK
70
0
0
LTYPE
5
15
100
AcDbSymbolTableRecord
100
AcDbLinetypeTableRecord
2
BYLAYER
70
0
0
ENDTAB
0
TABLE
2
LAYER
5
2
100
AcDbSymbolTable
70
2
0
LAYER
5
50
100
AcDbSymbolTableRecord
100
AcDbLayerTableRecord
2
0
70
0
6
CONTINUOUS
0
ENDTAB
0
TABLE
2
STYLE
5
3
100
AcDbSymbolTable
70
1
0
STYLE
5
11
100
AcDbSymbolTableRecord
100
AcDbTextStyleTableRecord
2
STANDARD
70
0
0
ENDTAB
0
TABLE
2
VIEW
5
6
100
AcDbSymbolTable
70
0
0
ENDTAB
0
TABLE
2
UCS
5
7
100
AcDbSymbolTable
70
0
0
ENDTAB
0
TABLE
2
APPID
5
9
100
AcDbSymbolTable
70
2
0
APPID
5
12
100
AcDbSymbolTableRecord
100
AcDbRegAppTableRecord
2
ACAD
70
0
0
ENDTAB
0
TABLE
2
DIMSTYLE
5
A
100
AcDbSymbolTable
70
1
0
ENDTAB
0
TABLE
2
BLOCK_RECORD
5
1
100
AcDbSymbolTable
70
1
0
BLOCK_RECORD
5
1F
100
AcDbSymbolTableRecord
100
AcDbBlockTableRecord
2
*MODEL_SPACE
0
BLOCK_RECORD
5
1B
100
AcDbSymbolTableRecord
100
AcDbBlockTableRecord
2
*PAPER_SPACE
0
ENDTAB
0
ENDSEC
0
SECTION
2
BLOCKS
0
BLOCK
5
20
100
AcDbEntity
100
AcDbBlockBegin
2
*MODEL_SPACE
0
ENDBLK
5
21
100
AcDbEntity
100
AcDbBlockEnd
0
BLOCK
5
1C
100
AcDbEntity
100
AcDbBlockBegin
2
*PAPER_SPACE
0
ENDBLK
5
1D
100
AcDbEntity
100
AcDbBlockEnd
0
ENDSEC
0
SECTION
2
ENTITIES
0
CIRCLE
5
100
100
AcDbEntity
8
0
100
AcDbCircle
10
77.25
20
0
30
0
40
48.702877156322018
210
0
220
0
230
1
0
LINE
5
101
100
AcDbEntity
8
0
100
AcDbLine
10
77.25
20
0
30
0
11
125.35856497465311
21
0
31
0
0
LINE
5
102
100
AcDbEntity
8
0
100
AcDbLine
10
30.820689399772824
20
14.706779405819088
30
0
11
30.820689399772824
21
14.706779405819088
31
0
0
SPLINE
5
103
100
AcDbEntity
8
0
100
AcDbSpline
70
4
71
5
72
41
73
35
74
0
42
0.000000001
43
0.0000000001
44
0.0000000001
40
0
40
0
40
0
40
0
40
0
40
0
40
0.033333333333333333
40
0.066666666666666666
40
0.10000000000000001
40
0.13333333333333333
40
0.16666666666666666
40
0.19999999999999998
40
0.23333333333333331
40
0.26666666666666666
40
0.29999999999999999
40
0.33333333333333331
40
0.36666666666666664
40
0.39999999999999997
40
0.43333333333333329
40
0.46666666666666662
40
0.49999999999999994
40
0.53333333333333333
40
0.56666666666666665
40
0.59999999999999998
40
0.6333333333333333
40
0.66666666666666663
40
0.69999999999999996
40
0.73333333333333328
40
0.76666666666666661
40
0.79999999999999993
40
0.83333333333333326
40
0.86666666666666659
40
0.89999999999999991
40
0.93333333333333324
40
0.96666666666666656
40
1
40
1
40
1
40
1
40
1
40
1
41
1
41
1
41
1
41
1
41
1
41
1
41
1
41
1
41
1
41
1
41
1
41
1
41
1
41
1
41
1
41
1
41
1
41
1
41
1
41
1
41
1
41
1
41
1
41
1
41
1
41
1
41
1
41
1
41
1
41
1
41
1
41
1
41
1
41
1
41
1
10
31.552119805845745
20
14.475094173234687
30
0
10
31.562146248849391
20
14.298503027605262
30
0
10
31.603883394535455
20
13.970288914152533
30
0
10
31.732772734814041
20
13.552683628008364
30
0
10
32.033916352720212
20
13.136377035434418
30
0
10
32.610236594104045
20
12.803171336609386
30
0
10
33.033582459851388
20
12.656046135129827
30
0
10
33.73822368363291
20
12.619140009499141
30
0
10
35.325118901853784
20
12.565116480824035
30
0
10
37.921007164798468
20
12.328131123969401
30
0
10
40.754319535047088
20
11.742244359483557
30
0
10
43.484232423408102
20
10.7373784104532
30
0
10
45.839176067330129
20
9.2987820315728165
30
0
10
47.712805591850426
20
7.4660544940522353
30
0
10
49.074641803144026
20
5.3145807375061125
30
0
10
49.961732250238391
20
2.9493311207232589
30
0
10
50.434267002080084
20
0.48339181883086824
30
0
10
50.551395911755073
20
-1.9527221519521745
30
0
10
50.327438411637885
20
-4.2754282801752899
30
0
10
49.738225264763244
20
-6.525432762812561
30
0
10
48.752701679029883
20
-8.7887107467973618
30
0
10
47.35303579142726
20
-11.171794066145893
30
0
10
45.566522772974629
20
-13.749507036232686
30
0
10
43.476974484996269
20
-16.536139510873994
30
0
10
41.282139793508101
20
-19.418818003842745
30
0
10
39.24690279612787
20
-22.169604423812615
30
0
10
37.899892328110568
20
-24.275850247239482
30
0
10
37.667945038316162
20
-25.184742298495379
30
0
10
37.841301688526187
20
-25.399336055370249
30
0
10
37.693022737838739
20
-25.609062648299805
30
0
10
37.547813439780249
20
-26.294567017395369
30
0
10
37.679575594328526
20
-27.157364723931249
30
0
10
37.947597715873592
20
-27.871563294818603
30
0
10
38.205764485346158
20
-28.352840170834504
30
0
10
38.35455981022448
20
-28.594825268027407
30
0
0
SPLINE
5
104
100
AcDbEntity
8
0
100
AcDbSpline
70
4
71
5
72
41
73
35
74
0
42
0.000000001
43
0.0000000001
44
0.0000000001
40
0
40
0
40
0
40
0
40
0
40
0
40
0.033333333333333333
40
0.066666666666666666
40
0.10000000000000001
40
0.13333333333333333
40
0.16666666666666666
40
0.19999999999999998
40
0.23333333333333331
40
0.26666666666666666
40
0.29999999999999999
40
0.33333333333333331
40
0.36666666666666664
40
0.39999999999999997
40
0.43333333333333329
40
0.46666666666666662
40
0.49999999999999994
40
0.53333333333333333
40
0.56666666666666665
40
0.59999999999999998
40
0.6333333333333333
40
0.66666666666666663
40
0.69999999999999996
40
0.73333333333333328
40
0.76666666666666661
40
0.79999999999999993
40
0.83333333333333326
40
0.86666666666666659
40
0.89999999999999991
40
0.93333333333333324
40
0.96666666666666656
40
1
40
1
40
1
40
1
40
1
40
1
41
1
41
1
41
1
41
1
41
1
41
1
41
1
41
1
41
1
41
1
41
1
41
1
41
1
41
1
41
1
41
1
41
1
41
1
41
1
41
1
41
1
41
1
41
1
41
1
41
1
41
1
41
1
41
1
41
1
41
1
41
1
41
1
41
1
41
1
41
1
10
41.865260626729523
20
-32.337978060617999
30
0
10
42.034274524720232
20
-32.409174540380462
30
0
10
42.357594485236056
20
-32.525603151776707
30
0
10
42.79840657554977
20
-32.622364859752153
30
0
10
43.298045639793628
20
-32.595233103558179
30
0
10
43.798186846893579
20
-32.297740933353033
30
0
10
44.25059590835572
20
-31.727496124718165
30
0
10
44.787756775552445
20
-30.874413980406707
30
0
10
45.553107335433353
20
-29.746014215490764
30
0
10
46.670157475414925
20
-28.38093240505609
30
0
10
48.199030814526708
20
-26.869295353635799
30
0
10
50.137596609301667
20
-25.34390735793491
30
0
10
52.437893796600584
20
-23.960811211410142
30
0
10
55.017196534624624
20
-22.88354560478809
30
0
10
57.770979572555532
20
-22.265826911998641
30
0
10
60.584704120314463
20
-22.235061752529365
30
0
10
63.346190826131512
20
-22.874672020914367
30
0
10
65.957167857596161
20
-24.207862009051251
30
0
10
68.346688468738591
20
-26.17662382040583
30
0
10
70.469823851501388
20
-28.657304286314762
30
0
10
72.304050972722223
20
-31.481890893111682
30
0
10
73.846674259442082
20
-34.456878947318657
30
0
10
75.112020660550883
20
-37.382700800172465
30
0
10
76.12896119440083
20
-40.07307756660844
30
0
10
76.938409682758859
20
-42.373758679364826
30
0
10
77.591132477102633
20
-44.183397532850734
30
0
10
78.145213152477652
20
-45.470123276268239
30
0
10
78.66462851291621
20
-46.300307412928099
30
0
10
79.212732762533761
20
-46.807186412190461
30
0
10
79.844664005947465
20
-47.14075217860735
30
0
10
80.598494095578815
20
-47.41699029736121
30
0
10
81.313091219990497
20
-47.635153708390646
30
0
10
81.914291288350881
20
-47.805827055842457
30
0
10
82.344024334207703
20
-47.922664918297897
30
0
10
82.566125004001123
20
-47.981851929737545
30
0
0
SPLINE
5
105
100
AcDbEntity
8
0
100
AcDbSpline
70
4
71
5
72
41
73
35
74
0
42
0.000000001
43
0.0000000001
44
0.0000000001
40
0
40
0
40
0
40
0
40
0
40
0
40
0.033333333333333333
40
0.066666666666666666
40
0.10000000000000001
40
0.13333333333333333
40
0.16666666666666666
40
0.19999999999999998
40
0.23333333333333331
40
0.26666666666666666
40
0.29999999999999999
40
0.33333333333333331
40
0.36666666666666664
40
0.39999999999999997
40
0.43333333333333329
40
0.46666666666666662
40
0.49999999999999994
40
0.53333333333333333
40
0.56666666666666665
40
0.59999999999999998
40
0.6333333333333333
40
0.66666666666666663
40
0.69999999999999996
40
0.73333333333333328
40
0.76666666666666661
40
0.79999999999999993
40
0.83333333333333326
40
0.86666666666666659
40
0.89999999999999991
40
0.93333333333333324
40
0.96666666666666656
40
1
40
1
40
1
40
1
40
1
40
1
41
1
41
1
41
1
41
1
41
1
41
1
41
1
41
1
41
1
41
1
41
1
41
1
41
1
41
1
41
1
41
1
41
1
41
1
41
1
41
1
41
1
41
1
41
1
41
1
41
1
41
1
41
1
41
1
41
1
41
1
41
1
41
1
41
1
41
1
41
1
10
87.563140820883774
20
-46.813072233852694
30
0
10
87.709305730010215
20
-46.702300144475082
30
0
10
87.971795845459781
20
-46.480511150806556
30
0
10
88.275999987834609
20
-46.147137536282976
30
0
10
88.502322729848274
20
-45.70087153583777
30
0
10
88.494757556583124
20
-45.118990459924817
30
0
10
88.227115596665087
20
-44.442070315486966
30
0
10
87.756905221773579
20
-43.550334286416913
30
0
10
87.162357639666766
20
-42.323321376291432
30
0
10
86.538687183570161
20
-40.673386672539202
30
0
10
85.994007765288401
20
-38.593524995983529
30
0
10
85.642265907767396
20
-36.151983772949336
30
0
10
85.594618102648994
20
-33.468319899235127
30
0
10
85.951330089704996
20
-30.695945400749693
30
0
10
86.793261528326454
20
-28.002239987001246
30
0
10
88.1734803925591
20
-25.550100469658435
30
0
10
90.108142486414678
20
-23.478387964399722
30
0
10
92.568207399947056
20
-21.883810520517851
30
0
10
95.467965448152071
20
-20.79880587407251
30
0
10
98.677865441680325
20
-20.200456929873525
30
0
10
102.04114275896282
20
-20.024262949978173
30
0
10
105.38886963321792
20
-20.175806022309565
30
0
10
108.55537888528934
20
-20.542894820789424
30
0
10
111.39378377769916
20
-21.007386867559671
30
0
10
113.7909563115345
20
-21.456724469973146
30
0
10
115.684510927505
20
-21.796269375195813
30
0
10
117.0758884467013
20
-21.959784306294111
30
0
10
118.05455667909058
20
-21.925049477373818
30
0
10
118.7675788939037
20
-21.703816772910479
30
0
10
119.37242094315204
20
-21.323331145864412
30
0
10
119.98856521629124
20
-20.808614197467215
30
0
10
120.53479883462144
20
-20.298836639765348
30
0
10
120.98320632344878
20
-19.863518781541703
30
0
10
121.29925740339461
20
-19.549777978222316
30
0
10
121.46156519377666
20
-19.387026661710145
30
0
0
SPLINE
5
106
100
AcDbEntity
8
0
100
AcDbSpline
70
4
71
5
72
41
73
35
74
0
42
0.000000001
43
0.0000000001
44
0.0000000001
40
0
40
0
40
0
40
0
40
0
40
0
40
0.033333333333333333
40
0.066666666666666666
40
0.10000000000000001
40
0.13333333333333333
40
0.16666666666666666
40
0.19999999999999998
40
0.23333333333333331
40
0.26666666666666666
40
0.29999999999999999
40
0.33333333333333331
40
0.36666666666666664
40
0.39999999999999997
40
0.43333333333333329
40
0.46666666666666662
40
0.49999999999999994
40
0.53333333333333333
40
0.56666666666666665
40
0.59999999999999998
40
0.6333333333333333
40
0.66666666666666663
40
0.69999999999999996
40
0.73333333333333328
40
0.76666666666666661
40
0.79999999999999993
40
0.83333333333333326
40
0.86666666666666659
40
0.89999999999999991
40
0.93333333333333324
40
0.96666666666666656
40
1
40
1
40
1
40
1
40
1
40
1
41
1
41
1
41
1
41
1
41
1
41
1
41
1
41
1
41
1
41
1
41
1
41
1
41
1
41
1
41
1
41
1
41
1
41
1
41
1
41
1
41
1
41
1
41
1
41
1
41
1
41
1
41
1
41
1
41
1
41
1
41
1
41
1
41
1
41
1
41
1
10
122.94788019415428
20
-14.475094173234693
30
0
10
122.92503120528534
20
-14.293125604094005
30
0
10
122.86420136021204
20
-13.954907999028309
30
0
10
122.72759341227012
20
-13.524772676528919
30
0
10
122.45427709004795
20
-13.105638432278703
30
0
10
121.94657070969511
20
-12.821249526572487
30
0
10
121.2265196883188
20
-12.714574190770023
30
0
10
120.21914844622692
20
-12.67592030601104
30
0
10
118.8592503042332
20
-12.577307160800746
30
0
10
117.11852970815355
20
-12.292454267482746
30
0
10
115.04497695076473
20
-11.724229642347586
30
0
10
112.75466929847754
20
-10.808076415015062
30
0
10
110.40672430606854
20
-9.5075086878266024
30
0
10
108.18413355510485
20
-7.8123997959638807
30
0
10
106.27228195579374
20
-5.736413075004835
30
0
10
104.83877627225944
20
-3.3150387171305402
30
0
10
104.01195166028556
20
-0.60371594348559043
30
0
10
103.86103954233931
20
2.3240514885345553
30
0
10
104.37127697938939
20
5.3778179463356066
30
0
10
105.4580415901456
20
8.4568473564440509
30
0
10
106.98709178620217
20
11.45762794313625
30
0
10
108.7921953737374
20
14.281072925011266
30
0
10
110.6933582247047
20
16.839805979384451
30
0
10
112.51482258327306
20
19.065690699049348
30
0
10
114.10254662876173
20
20.917034209391673
30
0
10
115.34337845040012
20
22.387128157654736
30
0
10
116.18067529423074
20
23.510338969974388
30
0
10
116.63992816618551
20
24.375257935554991
30
0
10
116.8048461313775
20
25.103369639280658
30
0
10
116.77775693720153
20
25.817421032742722
30
0
10
116.64007112069689
20
26.608376099892453
30
0
10
116.4717076146119
20
27.336317068623295
30
0
10
116.31891503508473
20
27.94230827429935
30
0
10
116.20523306918186
20
28.372886940075034
30
0
10
116.14544018977554
20
28.594825268027403
30
0
0
SPLINE
5
107
100
AcDbEntity
8
0
100
AcDbSpline
70
4
71
5
72
41
73
35
74
0
42
0.000000001
43
0.0000000001
44
0.0000000001
40
0
40
0
40
0
40
0
40
0
40
0
40
0.033333333333333333
40
0.066666666666666666
40
0.10000000000000001
40
0.13333333333333333
40
0.16666666666666666
40
0.19999999999999998
40
0.23333333333333331
40
0.26666666666666666
40
0.29999999999999999
40
0.33333333333333331
40
0.36666666666666664
40
0.39999999999999997
40
0.43333333333333329
40
0.46666666666666662
40
0.49999999999999994
40
0.53333333333333333
40
0.56666666666666665
40
0.59999999999999998
40
0.6333333333333333
40
0.66666666666666663
40
0.69999999999999996
40
0.73333333333333328
40
0.76666666666666661
40
0.79999999999999993
40
0.83333333333333326
40
0.86666666666666659
40
0.89999999999999991
40
0.93333333333333324
40
0.96666666666666656
40
1
40
1
40
1
40
1
40
1
40
1
41
1
41
1
41
1
41
1
41
1
41
1
41
1
41
1
41
1
41
1
41
1
41
1
41
1
41
1
41
1
41
1
41
1
41
1
41
1
41
1
41
1
41
1
41
1
41
1
41
1
41
1
41
1
41
1
41
1
41
1
41
1
41
1
41
1
41
1
41
1
10
112.63473937327049
20
32.337978060617985
30
0
10
112.46572547526202
20
32.409174540381478
30
0
10
112.14240551471947
20
32.525603151779251
30
0
10
111.70159342439348
20
32.622364859755415
30
0
10
111.20195436017812
20
32.59523310355987
30
0
10
110.70181315312836
20
32.29774093335174
30
0
10
110.24940409168941
20
31.727496124715387
30
0
10
109.71224322448427
20
30.874413980404391
30
0
10
108.94689266457479
20
29.746014215490149
30
0
10
107.82984252456403
20
28.380932405057489
30
0
10
106.30096918543384
20
26.869295353638741
30
0
10
104.36240339065418
20
25.343907357938566
30
0
10
102.06210620336149
20
23.960811211413571
30
0
10
99.482803465350486
20
22.88354560479068
30
0
10
96.729020427433767
20
22.265826912000183
30
0
10
93.915295879684933
20
22.235061752529951
30
0
10
91.153809173870698
20
22.874672020914311
30
0
10
88.542832142400911
20
24.207862009050977
30
0
10
86.153311531247709
20
26.176623820405727
30
0
10
84.030176148472179
20
28.657304286315011
30
0
10
82.195949027239564
20
31.481890893112329
30
0
10
80.653325740512571
20
34.456878947319609
30
0
10
79.387979339402818
20
37.382700800173566
30
0
10
78.371038805559465
20
40.073077566609349
30
0
10
77.561590317215774
20
42.373758679365309
30
0
10
76.908867522891754
20
44.183397532850776
30
0
10
76.354786847537127
20
45.470123276268012
30
0
10
75.835371487109782
20
46.300307412927822
30
0
10
75.287267237485608
20
46.80718641219034
30
0
10
74.655335994045174
20
47.140752178607421
30
0
10
73.901505904380272
20
47.416990297361437
30
0
10
73.186908779958515
20
47.635153708390881
30
0
10
72.585708711613506
20
47.805827055842599
30
0
10
72.155975665778541
20
47.92266491829794
30
0
10
71.933874995998892
20
47.981851929737537
30
0
0
SPLINE
5
108
100
AcDbEntity
8
0
100
AcDbSpline
70
4
71
5
72
41
73
35
74
0
42
0.000000001
43
0.0000000001
44
0.0000000001
40
0
40
0
40
0
40
0
40
0
40
0
40
0.033333333333333333
40
0.066666666666666666
40
0.10000000000000001
40
0.13333333333333333
40
0.16666666666666666
40
0.19999999999999998
40
0.23333333333333331
40
0.26666666666666666
40
0.29999999999999999
40
0.33333333333333331
40
0.36666666666666664
40
0.39999999999999997
40
0.43333333333333329
40
0.46666666666666662
40
0.49999999999999994
40
0.53333333333333333
40
0.56666666666666665
40
0.59999999999999998
40
0.6333333333333333
40
0.66666666666666663
40
0.69999999999999996
40
0.73333333333333328
40
0.76666666666666661
40
0.79999999999999993
40
0.83333333333333326
40
0.86666666666666659
40
0.89999999999999991
40
0.93333333333333324
40
0.96666666666666656
40
1
40
1
40
1
40
1
40
1
40
1
41
1
41
1
41
1
41
1
41
1
41
1
41
1
41
1
41
1
41
1
41
1
41
1
41
1
41
1
41
1
41
1
41
1
41
1
41
1
41
1
41
1
41
1
41
1
41
1
41
1
41
1
41
1
41
1
41
1
41
1
41
1
41
1
41
1
41
1
41
1
10
66.936859179116254
20
46.813072233852694
30
0
10
66.79069426997593
20
46.702300144475103
30
0
10
66.528204154505588
20
46.480511150806585
30
0
10
66.22400001212111
20
46.147137536283012
30
0
10
65.9976772701295
20
45.700871535837706
30
0
10
66.005242443434113
20
45.118990459924817
30
0
10
66.272884403370696
20
44.442070315487108
30
0
10
66.74309477825571
20
43.550334286417176
30
0
10
67.337642360339871
20
42.323321376291545
30
0
10
67.961312816412857
20
40.67338667253901
30
0
10
68.505992234678942
20
38.593524995982882
30
0
10
68.857734092195216
20
36.151983772948327
30
0
10
68.905381897318335
20
33.468319899233961
30
0
10
68.548669910273617
20
30.69594540074862
30
0
10
67.706738471665147
20
28.002239987000483
30
0
10
66.326519607441924
20
25.55010046965808
30
0
10
64.391857513588022
20
23.478387964399715
30
0
10
61.93179260004846
20
21.883810520518029
30
0
10
59.032034551829106
20
20.798805874072777
30
0
10
55.822134558283665
20
20.200456929873884
30
0
10
52.458857240985324
20
20.02426294997861
30
0
10
49.111130366720694
20
20.17580602231007
30
0
10
45.944621114648712
20
20.542894820789904
30
0
10
43.106216222248563
20
21.007386867560061
30
0
10
40.709043688432658
20
21.456724469973388
30
0
10
38.815489072487978
20
21.796269375195855
30
0
10
37.424111553317594
20
21.959784306293997
30
0
10
36.44544332094226
20
21.925049477373648
30
0
10
35.732421106120469
20
21.703816772910368
30
0
10
35.12757905683862
20
21.323331145864486
30
0
10
34.51143478365762
20
20.808614197467428
30
0
10
33.965201165315243
20
20.298836639765593
30
0
10
33.516793676507014
20
19.863518781541881
30
0
10
33.200742596588299
20
19.549777978222394
30
0
10
33.038434806223343
20
19.387026661710163
30
0
0
LINE
5
109
100
AcDbEntity
8
0
100
AcDbLine
10
38.35455981022448
20
-28.594825268027407
30
0
11
41.865260626729523
21
-32.337978060617999
31
0
0
LINE
5
110
100
AcDbEntity
8
0
100
AcDbLine
10
82.566125004001123
20
-47.981851929737545
30
0
11
87.563140820883774
21
-46.813072233852694
31
0
0
LINE
5
111
100
AcDbEntity
8
0
100
AcDbLine
10
121.46156519377666
20
-19.387026661710145
30
0
11
122.94788019415428
21
-14.475094173234693
31
0
0
LINE
5
112
100
AcDbEntity
8
0
100
AcDbLine
10
116.14544018977554
20
28.594825268027403
30
0
11
112.63473937327049
21
32.337978060617985
31
0
0
LINE
5
113
100
AcDbEntity
8
0
100
AcDbLine
10
71.933874995998892
20
47.981851929737537
30
0
11
66.936859179116254
21
46.813072233852694
31
0
0
LINE
5
114
100
AcDbEntity
8
0
100
AcDbLine
10
33.038434806223343
20
19.387026661710163
30
0
11
31.552119805845745
21
14.475094173234687
31
0
0
CIRCLE
5
115
100
AcDbEntity
8
0
100
AcDbCircle
10
77.280180704336232
20
0.26920589625941621
30
0
40
4.0999999999999996
210
0
220
0
230
1
0
ENDSEC
0
SECTION
2
OBJECTS
0
DICTIONARY
5
C
100
AcDbDictionary
3
ACAD_GROUP
350
D
3
ACAD_MLINESTYLE
350
17
0
DICTIONARY
5
D
100
AcDbDictionary
0
DICTIONARY
5
1A
330
C
100
AcDbDictionary
0
DICTIONARY
5
17
100
AcDbDictionary
0
ENDSEC
0
EOF
