0
SECTION
2
HEADER
9
$INSUNITS
70
4
9
$ACADVER
1
AC1014
9
$HANDSEED
5
FFFF
0
ENDSEC
0
SECTION
2
TABLES
0
TABLE
2
VPORT
5
8
100
AcDbSymbolTable
0
ENDTAB
0
TABLE
2
LTYPE
5
5
100
AcDbSymbolTable
0
LTYPE
5
14
100
AcDbSymbolTableRecord
100
AcDbLinetypeTableRecord
2
BYBLOCK
70
0
0
LTYPE
5
15
100
AcDbSymbolTableRecord
100
AcDbLinetypeTableRecord
2
BYLAYER
70
0
0
ENDTAB
0
TABLE
2
LAYER
5
2
100
AcDbSymbolTable
70
2
0
LAYER
5
50
100
AcDbSymbolTableRecord
100
AcDbLayerTableRecord
2
0
70
0
6
CONTINUOUS
0
ENDTAB
0
TABLE
2
STYLE
5
3
100
AcDbSymbolTable
70
1
0
STYLE
5
11
100
AcDbSymbolTableRecord
100
AcDbTextStyleTableRecord
2
STANDARD
70
0
0
ENDTAB
0
TABLE
2
VIEW
5
6
100
AcDbSymbolTable
70
0
0
ENDTAB
0
TABLE
2
UCS
5
7
100
AcDbSymbolTable
70
0
0
ENDTAB
0
TABLE
2
APPID
5
9
100
AcDbSymbolTable
70
2
0
APPID
5
12
100
AcDbSymbolTableRecord
100
AcDbRegAppTableRecord
2
ACAD
70
0
0
ENDTAB
0
TABLE
2
DIMSTYLE
5
A
100
AcDbSymbolTable
70
1
0
ENDTAB
0
TABLE
2
BLOCK_RECORD
5
1
100
AcDbSymbolTable
70
1
0
BLOCK_RECORD
5
1F
100
AcDbSymbolTableRecord
100
AcDbBlockTableRecord
2
*MODEL_SPACE
0
BLOCK_RECORD
5
1B
100
AcDbSymbolTableRecord
100
AcDbBlockTableRecord
2
*PAPER_SPACE
0
ENDTAB
0
ENDSEC
0
SECTION
2
BLOCKS
0
BLOCK
5
20
100
AcDbEntity
100
AcDbBlockBegin
2
*MODEL_SPACE
0
ENDBLK
5
21
100
AcDbEntity
100
AcDbBlockEnd
0
BLOCK
5
1C
100
AcDbEntity
100
AcDbBlockBegin
2
*PAPER_SPACE
0
ENDBLK
5
1D
100
AcDbEntity
100
AcDbBlockEnd
0
ENDSEC
0
SECTION
2
ENTITIES
0
LINE
5
100
100
AcDbEntity
8
0
100
AcDbLine
10
49.77564934249866
20
1.7526132639676262
30
0
11
50.364546242041413
21
0.62467073886847113
31
0
0
SPLINE
5
101
100
AcDbEntity
8
0
100
AcDbSpline
70
4
71
5
72
26
73
20
74
0
42
0.000000001
43
0.0000000001
44
0.0000000001
40
0
40
0
40
0
40
0
40
0
40
0
40
0.066666666666666666
40
0.13333333333333333
40
0.20000000000000001
40
0.26666666666666666
40
0.33333333333333331
40
0.39999999999999997
40
0.46666666666666662
40
0.53333333333333333
40
0.59999999999999998
40
0.66666666666666663
40
0.73333333333333328
40
0.79999999999999993
40
0.86666666666666659
40
0.93333333333333324
40
1
40
1
40
1
40
1
40
1
40
1
41
1
41
1
41
1
41
1
41
1
41
1
41
1
41
1
41
1
41
1
41
1
41
1
41
1
41
1
41
1
41
1
41
1
41
1
41
1
41
1
10
25.525648115015503
20
14.352612963709229
30
0
10
25.527231977217035
20
14.276695861582539
30
0
10
25.58692115630901
20
14.073873544482352
30
0
10
25.846786235873932
20
13.618657017331721
30
0
10
26.476135617502049
20
12.885852020116321
30
0
10
27.497443486381194
20
12.538803083936084
30
0
10
28.423650965756533
20
12.851415829789834
30
0
10
29.224811193846875
20
13.183811744480092
30
0
10
30.294060783424968
20
13.373531945830381
30
0
10
32.023743522608129
20
13.264993664893323
30
0
10
34.437724755086037
20
12.7886736408517
30
0
10
37.107442681221841
20
11.869046651265815
30
0
10
39.837136261984305
20
10.54840258891744
30
0
10
42.438119299956824
20
8.911418230744907
30
0
10
44.802221739752355
20
7.0823518029040091
30
0
10
46.852398026052448
20
5.1940962139341984
30
0
10
48.209119340584579
20
3.7353830820142542
30
0
10
49.058295454710603
20
2.7119975292148664
30
0
10
49.549088126445007
20
2.0663129790298176
30
0
10
49.77564934249866
20
1.7526132639676262
30
0
0
CIRCLE
5
102
100
AcDbEntity
8
0
100
AcDbCircle
10
0
20
0
30
0
40
31.087342238259904
210
0
220
0
230
1
0
ARC
5
103
100
AcDbEntity
8
0
100
AcDbCircle
10
-2.7755575615628914e-16
20
0
30
0
40
31.087342238259907
210
-0
220
0
230
1
100
AcDbArc
50
2.9052568933797378
51
196.20241661077935
0
LINE
5
104
100
AcDbEntity
8
0
100
AcDbLine
10
-1.7526132639676377
20
49.775649342498667
30
0
11
-0.62467073886848246
21
50.364546242041435
31
0
0
ARC
5
105
100
AcDbEntity
8
0
100
AcDbCircle
10
2.7755575615628914e-16
20
-2.7755575615628914e-16
30
0
40
31.0873422382599
210
0
220
0
230
1
100
AcDbArc
50
92.905256893379885
51
286.20241661077938
0
LINE
5
106
100
AcDbEntity
8
0
100
AcDbLine
10
-49.77564934249866
20
-1.7526132639676206
30
0
11
-50.364546242041413
21
-0.62467073886846525
31
0
0
LINE
5
107
100
AcDbEntity
8
0
100
AcDbLine
10
1.7526132639676151
20
-49.775649342498653
30
0
11
0.6246707388684597
21
-50.364546242041413
31
0
0
LINE
5
108
100
AcDbEntity
8
0
100
AcDbLine
10
-2.7755575615628914e-16
20
0
30
0
11
31.087342238259904
21
0
31
0
0
ARC
5
109
100
AcDbEntity
8
0
100
AcDbCircle
10
0.0082959802464777077
20
0.010308447373206797
30
0
40
31.087342238719621
210
0
220
0
230
1
100
AcDbArc
50
-46.890960805354226
51
294.22314526940733
0
SPLINE
5
110
100
AcDbEntity
8
0
100
AcDbSpline
70
4
71
5
72
16
73
10
74
0
42
0.000000001
43
0.0000000001
44
0.0000000001
40
0
40
0
40
0
40
0
40
0
40
0
40
0.20000000000000001
40
0.40000000000000002
40
0.60000000000000009
40
0.80000000000000004
40
1
40
1
40
1
40
1
40
1
40
1
41
1
41
1
41
1
41
1
41
1
41
1
41
1
41
1
41
1
41
1
10
23.272521963755377
20
17.441319908494894
30
0
10
23.323686170158958
20
17.359943246550859
30
0
10
23.437385613217316
20
17.184881801896669
30
0
10
23.642017180860194
20
16.885398489299146
30
0
10
23.973620857250797
20
16.422483257098197
30
0
10
24.453316411165634
20
15.7732758491045
30
0
10
24.869066163579831
20
15.21928003379867
30
0
10
25.192962779106772
20
14.790702999680727
30
0
10
25.413915680307756
20
14.499549302492948
30
0
10
25.525648115015503
20
14.352612963709229
30
0
0
SPLINE
5
111
100
AcDbEntity
8
0
100
AcDbSpline
70
4
71
5
72
26
73
20
74
0
42
0.000000001
43
0.0000000001
44
0.0000000001
40
0
40
0
40
0
40
0
40
0
40
0
40
0.066666666666666666
40
0.13333333333333333
40
0.20000000000000001
40
0.26666666666666666
40
0.33333333333333331
40
0.39999999999999997
40
0.46666666666666662
40
0.53333333333333333
40
0.59999999999999998
40
0.66666666666666663
40
0.73333333333333328
40
0.79999999999999993
40
0.86666666666666659
40
0.93333333333333324
40
1
40
1
40
1
40
1
40
1
40
1
41
1
41
1
41
1
41
1
41
1
41
1
41
1
41
1
41
1
41
1
41
1
41
1
41
1
41
1
41
1
41
1
41
1
41
1
41
1
41
1
10
50.364546242041413
20
0.62467073886847113
30
0
10
50.343109544510455
20
-0.27329796279015134
30
0
10
50.228992789790077
20
-2.0371804022581035
30
0
10
49.844071828690304
20
-4.5868418992998823
30
0
10
48.908097613821226
20
-7.78824381571172
30
0
10
47.069137787795327
20
-11.423596217946169
30
0
10
44.627130181838496
20
-14.642008281424257
30
0
10
41.678996134308036
20
-17.387586935056078
30
0
10
38.373843971389249
20
-19.606348932195601
30
0
10
34.894087268610129
20
-21.26087497597117
30
0
10
31.537097330230427
20
-22.332212955618477
30
0
10
28.557362784647292
20
-22.858977275484357
30
0
10
25.870641749593602
20
-22.968735639400812
30
0
10
23.367704918016656
20
-22.832876279230724
30
0
10
21.003244101236152
20
-22.642855537277903
30
0
10
19.033294464955432
20
-22.593135697814798
30
0
10
18.294330780514173
20
-22.786093367060474
30
0
10
17.873763955129714
20
-23.009204270799888
30
0
10
17.586929105258999
20
-23.180972640569003
30
0
10
17.441319908494883
20
-23.272521963755377
30
0
0
SPLINE
5
112
100
AcDbEntity
8
0
100
AcDbSpline
70
4
71
5
72
26
73
20
74
0
42
0.000000001
43
0.0000000001
44
0.0000000001
40
0
40
0
40
0
40
0
40
0
40
0
40
0.066666666666666666
40
0.13333333333333333
40
0.20000000000000001
40
0.26666666666666666
40
0.33333333333333331
40
0.39999999999999997
40
0.46666666666666662
40
0.53333333333333333
40
0.59999999999999998
40
0.66666666666666663
40
0.73333333333333328
40
0.79999999999999993
40
0.86666666666666659
40
0.93333333333333324
40
1
40
1
40
1
40
1
40
1
40
1
41
1
41
1
41
1
41
1
41
1
41
1
41
1
41
1
41
1
41
1
41
1
41
1
41
1
41
1
41
1
41
1
41
1
41
1
41
1
41
1
10
-0.62467073886848246
20
50.364546242041435
30
0
10
0.39316246579111103
20
50.096206533295259
30
0
10
2.3744532626776671
20
49.534310725566506
30
0
10
5.1832639512433634
20
48.615818558607444
30
0
10
8.5997107966963267
20
47.238759293992032
30
0
10
12.308602927615741
20
45.259047587397198
30
0
10
15.438905218039618
20
43.019378857032784
30
0
10
17.977214347933739
20
40.526252181418215
30
0
10
19.921301554232386
20
37.80003906789841
30
0
10
21.2902713412686
20
34.882318950577293
30
0
10
22.134772079449768
20
31.842820305132001
30
0
10
22.554107016818364
20
28.791082949659355
30
0
10
22.679852685068095
20
25.862306388536563
30
0
10
22.654512839348616
20
23.198990892389197
30
0
10
22.612324216919276
20
20.932763005113671
30
0
10
22.662291703615573
20
19.168147267366351
30
0
10
22.823283310670668
20
18.198537458838263
30
0
10
23.018911396270866
20
17.722763029363882
30
0
10
23.182466097476073
20
17.516630143275641
30
0
10
23.272521963755377
20
17.441319908494894
30
0
0
SPLINE
5
113
100
AcDbEntity
8
0
100
AcDbSpline
70
4
71
5
72
26
73
20
74
0
42
0.000000001
43
0.0000000001
44
0.0000000001
40
0
40
0
40
0
40
0
40
0
40
0
40
0.066666666666666666
40
0.13333333333333333
40
0.20000000000000001
40
0.26666666666666666
40
0.33333333333333331
40
0.39999999999999997
40
0.46666666666666662
40
0.53333333333333333
40
0.59999999999999998
40
0.66666666666666663
40
0.73333333333333328
40
0.79999999999999993
40
0.86666666666666659
40
0.93333333333333324
40
1
40
1
40
1
40
1
40
1
40
1
41
1
41
1
41
1
41
1
41
1
41
1
41
1
41
1
41
1
41
1
41
1
41
1
41
1
41
1
41
1
41
1
41
1
41
1
41
1
41
1
10
-14.352612963709234
20
25.5256481150155
30
0
10
-14.150807853216797
20
25.61347460115169
30
0
10
-13.778277590957639
20
25.803170020750201
30
0
10
-13.312713007424561
20
26.129840178048948
30
0
10
-12.879857213877838
20
26.650269558371317
30
0
10
-12.642586300323281
20
27.44658367664346
30
0
10
-12.66779032899878
20
28.395240457436977
30
0
10
-12.857200431558372
20
29.504143875565564
30
0
10
-13.077236933908296
20
30.781400660147334
30
0
10
-13.186007984213381
20
32.233690455929221
30
0
10
-13.056290807747759
20
33.864441287933921
30
0
10
-12.604376181852539
20
35.670845989342936
30
0
10
-11.783312513037011
20
37.6457876947632
30
0
10
-10.571402230970158
20
39.780207611348231
30
0
10
-8.9643455482963592
20
42.064676335214344
30
0
10
-6.9677981927708643
20
44.490705265996617
30
0
10
-5.0667739568353722
20
46.539457191013994
30
0
10
-3.4741223303945818
20
48.134843576299666
30
0
10
-2.3387218366147042
20
49.224388406663167
30
0
10
-1.7526132639676377
20
49.775649342498667
30
0
0
SPLINE
5
114
100
AcDbEntity
8
0
100
AcDbSpline
70
4
71
5
72
16
73
10
74
0
42
0.000000001
43
0.0000000001
44
0.0000000001
40
0
40
0
40
0
40
0
40
0
40
0
40
0.20000000000000001
40
0.40000000000000002
40
0.60000000000000009
40
0.80000000000000004
40
1
40
1
40
1
40
1
40
1
40
1
41
1
41
1
41
1
41
1
41
1
41
1
41
1
41
1
41
1
41
1
10
-17.441319908494904
20
23.272521963755377
30
0
10
-17.317771630701245
20
23.362647009803034
30
0
10
-17.070675075114508
20
23.542897101899133
30
0
10
-16.700030241736261
20
23.813272240045791
30
0
10
-16.205837130568529
20
24.173772424245762
30
0
10
-15.588095741612769
20
24.624397654500502
30
0
10
-15.093902630450275
20
24.984897838706154
30
0
10
-14.723257797079402
20
25.25527297686077
30
0
10
-14.476161241499222
20
25.43552306896391
30
0
10
-14.352612963709234
20
25.5256481150155
30
0
0
SPLINE
5
115
100
AcDbEntity
8
0
100
AcDbSpline
70
4
71
5
72
26
73
20
74
0
42
0.000000001
43
0.0000000001
44
0.0000000001
40
0
40
0
40
0
40
0
40
0
40
0
40
0.066666666666666666
40
0.13333333333333333
40
0.20000000000000001
40
0.26666666666666666
40
0.33333333333333331
40
0.39999999999999997
40
0.46666666666666662
40
0.53333333333333333
40
0.59999999999999998
40
0.66666666666666663
40
0.73333333333333328
40
0.79999999999999993
40
0.86666666666666659
40
0.93333333333333324
40
1
40
1
40
1
40
1
40
1
40
1
41
1
41
1
41
1
41
1
41
1
41
1
41
1
41
1
41
1
41
1
41
1
41
1
41
1
41
1
41
1
41
1
41
1
41
1
41
1
41
1
10
-50.364546242041413
20
-0.62467073886846525
30
0
10
-50.096206533293461
20
0.39316246579101
30
0
10
-49.53431072556161
20
2.374453262677358
30
0
10
-48.615818558599216
20
5.1832639512428305
30
0
10
-47.23875929398163
20
8.5997107966956481
30
0
10
-45.259047587386974
20
12.308602927615059
30
0
10
-43.019378857024563
20
15.438905218039045
30
0
10
-40.526252181412858
20
17.977214347933341
30
0
10
-37.800039067895966
20
19.921301554232191
30
0
10
-34.882318950577194
20
21.290271341268607
30
0
10
-31.842820305133305
20
22.134772079449899
30
0
10
-28.791082949661121
20
22.554107016818538
30
0
10
-25.86230638853808
20
22.679852685068251
30
0
10
-23.198990892390071
20
22.654512839348705
30
0
10
-20.932763005113827
20
22.612324216919298
30
0
10
-19.168147267366017
20
22.662291703615534
30
0
10
-18.198537458837848
20
22.823283310670625
30
0
10
-17.722763029363591
20
23.018911396270841
30
0
10
-17.51663014327552
20
23.182466097476066
30
0
10
-17.441319908494883
20
23.272521963755377
30
0
0
SPLINE
5
116
100
AcDbEntity
8
0
100
AcDbSpline
70
4
71
5
72
26
73
20
74
0
42
0.000000001
43
0.0000000001
44
0.0000000001
40
0
40
0
40
0
40
0
40
0
40
0
40
0.066666666666666666
40
0.13333333333333333
40
0.20000000000000001
40
0.26666666666666666
40
0.33333333333333331
40
0.39999999999999997
40
0.46666666666666662
40
0.53333333333333333
40
0.59999999999999998
40
0.66666666666666663
40
0.73333333333333328
40
0.79999999999999993
40
0.86666666666666659
40
0.93333333333333324
40
1
40
1
40
1
40
1
40
1
40
1
41
1
41
1
41
1
41
1
41
1
41
1
41
1
41
1
41
1
41
1
41
1
41
1
41
1
41
1
41
1
41
1
41
1
41
1
41
1
41
1
10
-25.525648115015503
20
-14.352612963709227
30
0
10
-25.613474601150024
20
-14.150807853216779
30
0
10
-25.803170020745863
20
-13.77827759095763
30
0
10
-26.129840178042677
20
-13.312713007424627
30
0
10
-26.650269558366148
20
-12.879857213878092
30
0
10
-27.446583676642934
20
-12.642586300323455
30
0
10
-28.39524045744113
20
-12.667790328998286
30
0
10
-29.504143875572289
20
-12.857200431556997
30
0
10
-30.781400660153345
20
-13.07723693390658
30
0
10
-32.233690455930954
20
-13.18600798421263
30
0
10
-33.864441287928265
20
-13.056290807749701
30
0
10
-35.670845989328043
20
-12.604376181858679
30
0
10
-37.6457876947389
20
-11.78331251304801
30
0
10
-39.78020761131642
20
-10.571402230985514
30
0
10
-42.064676335179094
20
-8.9643455483142009
30
0
10
-44.490705265964053
20
-6.967798192787952
30
0
10
-46.539457190989879
20
-5.066773956848289
30
0
10
-48.134843576285967
20
-3.4741223304019924
30
0
10
-49.224388406658299
20
-2.3387218366173435
30
0
10
-49.77564934249866
20
-1.7526132639676206
30
0
0
SPLINE
5
117
100
AcDbEntity
8
0
100
AcDbSpline
70
4
71
5
72
16
73
10
74
0
42
0.000000001
43
0.0000000001
44
0.0000000001
40
0
40
0
40
0
40
0
40
0
40
0
40
0.20000000000000001
40
0.40000000000000002
40
0.60000000000000009
40
0.80000000000000004
40
1
40
1
40
1
40
1
40
1
40
1
41
1
41
1
41
1
41
1
41
1
41
1
41
1
41
1
41
1
41
1
10
-23.272521963755377
20
-17.44131990849489
30
0
10
-23.362647009802991
20
-17.317771630702406
30
0
10
-23.542897101899001
20
-17.070675075117755
30
0
10
-23.813272240045542
20
-16.700030241741771
30
0
10
-24.173772424245414
20
-16.205837130575482
30
0
10
-24.62439765450014
20
-15.588095741619423
30
0
10
-24.984897838705884
20
-15.093902630455233
30
0
10
-25.255272976860617
20
-14.723257797082216
30
0
10
-25.435523068963857
20
-14.47616124150022
30
0
10
-25.525648115015503
20
-14.352612963709227
30
0
0
SPLINE
5
118
100
AcDbEntity
8
0
100
AcDbSpline
70
4
71
5
72
26
73
20
74
0
42
0.000000001
43
0.0000000001
44
0.0000000001
40
0
40
0
40
0
40
0
40
0
40
0
40
0.066666666666666666
40
0.13333333333333333
40
0.20000000000000001
40
0.26666666666666666
40
0.33333333333333331
40
0.39999999999999997
40
0.46666666666666662
40
0.53333333333333333
40
0.59999999999999998
40
0.66666666666666663
40
0.73333333333333328
40
0.79999999999999993
40
0.86666666666666659
40
0.93333333333333324
40
1
40
1
40
1
40
1
40
1
40
1
41
1
41
1
41
1
41
1
41
1
41
1
41
1
41
1
41
1
41
1
41
1
41
1
41
1
41
1
41
1
41
1
41
1
41
1
41
1
41
1
10
0.62467073886846025
20
-50.364546242041413
30
0
10
-0.39316246579089398
20
-50.096206533292822
30
0
10
-2.3744532626770249
20
-49.534310725559791
30
0
10
-5.1832639512422487
20
-48.615818558595969
30
0
10
-8.5997107966948825
20
-47.238759293977139
30
0
10
-12.308602927614272
20
-45.259047587382064
30
0
10
-15.438905218038371
20
-43.019378857020207
30
0
10
-17.977214347932868
20
-40.52625218140976
30
0
10
-19.921301554231945
20
-37.800039067894424
30
0
10
-21.290271341268582
20
-34.882318950577073
30
0
10
-22.134772079450059
20
-31.842820305134222
30
0
10
-22.554107016818804
20
-28.791082949662442
30
0
10
-22.679852685068521
20
-25.862306388539299
30
0
10
-22.654512839348886
20
-23.198990892390828
30
0
10
-22.612324216919344
20
-20.932763005113998
30
0
10
-22.662291703615463
20
-19.168147267365711
30
0
10
-22.823283310670529
20
-18.198537458837414
30
0
10
-23.01891139627077
20
-17.722763029363293
30
0
10
-23.182466097476038
20
-17.516630143275407
30
0
10
-23.272521963755381
20
-17.441319908494879
30
0
0
SPLINE
5
119
100
AcDbEntity
8
0
100
AcDbSpline
70
4
71
5
72
26
73
20
74
0
42
0.000000001
43
0.0000000001
44
0.0000000001
40
0
40
0
40
0
40
0
40
0
40
0
40
0.066666666666666666
40
0.13333333333333333
40
0.20000000000000001
40
0.26666666666666666
40
0.33333333333333331
40
0.39999999999999997
40
0.46666666666666662
40
0.53333333333333333
40
0.59999999999999998
40
0.66666666666666663
40
0.73333333333333328
40
0.79999999999999993
40
0.86666666666666659
40
0.93333333333333324
40
1
40
1
40
1
40
1
40
1
40
1
41
1
41
1
41
1
41
1
41
1
41
1
41
1
41
1
41
1
41
1
41
1
41
1
41
1
41
1
41
1
41
1
41
1
41
1
41
1
41
1
10
14.352612963709223
20
-25.525648115015507
30
0
10
14.150807853217637
20
-25.613474601151879
30
0
10
13.778277590959842
20
-25.803170020750695
30
0
10
13.312713007427757
20
-26.129840178049694
30
0
10
12.879857213880516
20
-26.650269558372017
30
0
10
12.642586300323575
20
-27.446583676643588
30
0
10
12.667790328996539
20
-28.395240457436323
30
0
10
12.857200431554617
20
-29.50414387556425
30
0
10
13.077236933904821
20
-30.781400660145973
30
0
10
13.186007984212306
20
-32.233690455928709
30
0
10
13.056290807751097
20
-33.864441287935364
30
0
10
12.604376181861635
20
-35.670845989347143
30
0
10
11.783312513052092
20
-37.645787694770355
30
0
10
10.57140223099011
20
-39.780207611357802
30
0
10
8.9643455483186418
20
-42.064676335225073
30
0
10
6.9677981927915758
20
-44.490705266006586
30
0
10
5.0667739568507573
20
-46.53945719102137
30
0
10
3.4741223304033273
20
-48.134843576303851
30
0
10
2.3387218366178057
20
-49.224388406664652
30
0
10
1.7526132639676155
20
-49.775649342498653
30
0
0
SPLINE
5
120
100
AcDbEntity
8
0
100
AcDbSpline
70
4
71
5
72
16
73
10
74
0
42
0.000000001
43
0.0000000001
44
0.0000000001
40
0
40
0
40
0
40
0
40
0
40
0
40
0.20000000000000001
40
0.40000000000000002
40
0.60000000000000009
40
0.80000000000000004
40
1
40
1
40
1
40
1
40
1
40
1
41
1
41
1
41
1
41
1
41
1
41
1
41
1
41
1
41
1
41
1
10
17.441319908494886
20
-23.272521963755377
30
0
10
17.317771630701245
20
-23.362647009801879
30
0
10
17.070675075114547
20
-23.542897101895935
30
0
10
16.700030241736329
20
-23.813272240040359
30
0
10
16.205837130568625
20
-24.173772424238908
30
0
10
15.588095741612886
20
-24.624397654493954
30
0
10
15.093902630450398
20
-24.984897838701301
30
0
10
14.723257797079473
20
-25.255272976858016
30
0
10
14.476161241499243
20
-25.435523068962937
30
0
10
14.352612963709223
20
-25.525648115015507
30
0
0
CIRCLE
5
121
100
AcDbEntity
8
0
100
AcDbCircle
10
0
20
0
30
0
40
50.368419984140125
210
0
220
0
230
1
0
CIRCLE
5
122
100
AcDbEntity
8
0
100
AcDbCircle
10
0
20
0
30
0
40
4.0999999999999996
210
0
220
0
230
1
0
ENDSEC
0
SECTION
2
OBJECTS
0
DICTIONARY
5
C
100
AcDbDictionary
3
ACAD_GROUP
350
D
3
ACAD_MLINESTYLE
350
17
0
DICTIONARY
5
D
100
AcDbDictionary
0
DICTIONARY
5
1A
330
C
100
AcDbDictionary
0
DICTIONARY
5
17
100
AcDbDictionary
0
ENDSEC
0
EOF
